<?xml version="1.0" encoding="utf-8"?>
<!-- Generator: Adobe Illustrator 16.0.0, SVG Export Plug-In . SVG Version: 6.00 Build 0)  -->
<!DOCTYPE svg PUBLIC "-//W3C//DTD SVG 1.1//EN" "http://www.w3.org/Graphics/SVG/1.1/DTD/svg11.dtd">
<svg version="1.1" id="Layer_1" xmlns="http://www.w3.org/2000/svg" xmlns:xlink="http://www.w3.org/1999/xlink" x="0px" y="0px"
	 width="122.139px" height="122.732px" viewBox="0 0 122.139 122.732" enable-background="new 0 0 122.139 122.732"
	 xml:space="preserve">
<path fill="#3B5999" d="M110.217,97.759c0,6.753-6.003,12.756-12.756,12.756H80.204V69.996H95.21l0.75-14.258H80.204
	c0-6.003,0-9.004,0-9.755c0,0,0,0,0-0.75c0-3.752,0.75-6.753,6.003-6.753c4.502,0,9.004,0,9.004,0V24.975
	c0,0-4.502-0.75-10.505-0.75c-14.257,0-21.011,9.004-21.011,18.759c0,6.753,0,12.756,0,12.756h-9.004v14.258h10.505v40.519h-40.52
	c-6.753,0-12.756-6.003-12.756-12.756V24.975c0.751-6.753,6.003-12.756,12.756-12.756h72.784c7.504,0,12.756,6.003,12.756,12.756
	V97.759L110.217,97.759z"/>
</svg>
