<?xml version="1.0" encoding="utf-8"?>
<!-- Generator: Adobe Illustrator 16.0.0, SVG Export Plug-In . SVG Version: 6.00 Build 0)  -->
<!DOCTYPE svg PUBLIC "-//W3C//DTD SVG 1.1//EN" "http://www.w3.org/Graphics/SVG/1.1/DTD/svg11.dtd">
<svg version="1.1" id="Layer_1" xmlns="http://www.w3.org/2000/svg" xmlns:xlink="http://www.w3.org/1999/xlink" x="0px" y="0px"
	 width="76px" height="20.537px" viewBox="86.653 348.123 76 20.537" enable-background="new 86.653 348.123 76 20.537"
	 xml:space="preserve">
<g>
	<path fill-rule="evenodd" clip-rule="evenodd" fill="#EEDBCF" d="M86.653,368.375c0-6.751,0-13.502,0-20.252
		c25.333,0,50.666,0,76,0c0,6.75,0,13.501,0,20.252c-0.646-0.569-1.293-1.139-1.979-1.742c-0.654,0.612-1.276,1.194-2.167,2.027
		c-0.548-0.764-1.032-1.439-1.539-2.146c-0.764,0.73-1.358,1.298-1.991,1.902c-0.648-0.609-1.245-1.17-1.887-1.771
		c-0.661,0.621-1.259,1.183-1.882,1.768c-0.651-0.617-1.25-1.186-1.905-1.807c-0.662,0.631-1.279,1.22-2.141,2.041
		c-0.551-0.771-1.036-1.45-1.721-2.406c-0.672,0.927-1.162,1.603-1.687,2.326c-0.799-0.747-1.396-1.307-2.052-1.92
		c-0.648,0.605-1.247,1.166-2.02,1.888c-0.533-0.7-1.037-1.36-1.594-2.093c-0.825,0.789-1.442,1.377-2.074,1.98
		c-0.677-0.644-1.275-1.213-2.198-2.092c-0.527,0.752-1.024,1.46-1.532,2.184c-0.775-0.739-1.366-1.303-1.979-1.887
		c-0.688,0.656-1.277,1.218-1.882,1.793c-0.691-0.643-1.29-1.201-1.913-1.781c-0.672,0.631-1.27,1.191-1.889,1.773
		c-0.661-0.627-1.261-1.195-2.174-2.061c-0.515,0.748-1.006,1.461-1.515,2.201c-0.807-0.771-1.399-1.339-2.006-1.92
		c-0.687,0.637-1.29,1.195-1.926,1.785c-0.652-0.621-1.244-1.186-1.869-1.781c-0.679,0.635-1.278,1.195-1.9,1.775
		c-0.656-0.625-1.255-1.195-2.165-2.061c-0.512,0.754-1,1.473-1.487,2.191c-0.157,0.01-0.314,0.021-0.471,0.031
		c-0.471-0.689-0.942-1.381-1.642-2.405c-0.691,0.998-1.167,1.687-1.668,2.41c-0.821-0.768-1.419-1.327-2.067-1.933
		c-0.653,0.611-1.251,1.172-1.888,1.77c-0.644-0.616-1.239-1.187-1.888-1.807c-0.657,0.611-1.281,1.193-1.929,1.799
		c-0.658-0.622-1.257-1.188-1.899-1.794c-0.648,0.614-1.247,1.181-1.896,1.795c-0.646-0.597-1.27-1.174-1.904-1.76
		c-0.668,0.634-1.24,1.176-1.855,1.759c-0.66-0.613-1.281-1.191-1.915-1.78C87.873,367.258,87.263,367.816,86.653,368.375z"/>
</g>
</svg>
