<?xml version="1.0" encoding="utf-8"?>
<!-- Generator: Adobe Illustrator 16.0.0, SVG Export Plug-In . SVG Version: 6.00 Build 0)  -->
<!DOCTYPE svg PUBLIC "-//W3C//DTD SVG 1.1//EN" "http://www.w3.org/Graphics/SVG/1.1/DTD/svg11.dtd">
<svg version="1.1" id="Layer_1" xmlns="http://www.w3.org/2000/svg" xmlns:xlink="http://www.w3.org/1999/xlink" x="0px" y="0px"
	 width="122.139px" height="122.733px" viewBox="0 0 122.139 122.733" enable-background="new 0 0 122.139 122.733"
	 xml:space="preserve">
<g>
	<path fill-rule="evenodd" clip-rule="evenodd" fill="#FFFFFF" d="M122.115,60.453c0.002,30.584-22.119,56.347-51.744,60.734
		c-12.868,1.906-25.123-0.074-36.729-5.954c-1.022-0.518-1.934-0.652-3.055-0.354c-9.601,2.558-19.216,5.065-28.827,7.583
		c-1.939,0.508-1.999,0.439-1.489-1.423c2.586-9.442,5.16-18.888,7.768-28.324c0.267-0.963,0.159-1.761-0.316-2.641
		C2.163,79.791-0.352,68.777,0.425,57.13c0.946-14.189,6.204-26.647,15.822-37.186C25.896,9.372,37.82,2.82,51.953,0.743
		c18.7-2.748,35.363,2.131,49.621,14.609c10.851,9.496,17.348,21.499,19.779,35.705c0.165,0.959,0.313,1.923,0.418,2.89
		C122.025,56.272,122.207,58.603,122.115,60.453z M111.536,62.701c0.069-13.38-3.536-23.946-10.906-33.123
		c-9.171-11.418-21.175-17.746-35.769-18.886c-8.337-0.652-16.457,0.633-24.065,4.239c-17.651,8.366-27.705,22.331-29.704,41.73
		c-1.168,11.34,1.578,21.974,7.826,31.6c0.637,0.982,0.788,1.885,0.468,3.012c-1.436,5.061-2.804,10.141-4.2,15.212
		c-0.453,1.645-0.454,1.655,1.263,1.209c4.903-1.275,9.827-2.476,14.691-3.885c1.796-0.521,3.191-0.278,4.779,0.648
		c10.312,6.02,21.441,8.109,33.206,6.251C93.875,106.8,111.776,85.142,111.536,62.701z"/>
	<linearGradient id="SVGID_1_" gradientUnits="userSpaceOnUse" x1="93.644" y1="22.3247" x2="19.026" y2="111.251">
		<stop  offset="0" style="stop-color:#61BD60"/>
		<stop  offset="1" style="stop-color:#2FB44A"/>
	</linearGradient>
	<path fill-rule="evenodd" clip-rule="evenodd" fill="url(#SVGID_1_)" d="M111.536,62.701c0.24,22.44-17.66,44.099-42.411,48.008
		c-11.765,1.858-22.895-0.231-33.206-6.251c-1.588-0.927-2.982-1.169-4.779-0.648c-4.864,1.41-9.788,2.61-14.691,3.885
		c-1.716,0.446-1.716,0.436-1.263-1.209c1.396-5.072,2.765-10.151,4.2-15.212c0.32-1.127,0.169-2.03-0.468-3.012
		c-6.249-9.626-8.994-20.259-7.826-31.6c1.999-19.399,12.053-33.364,29.704-41.73c7.608-3.606,15.728-4.891,24.065-4.239
		c14.594,1.14,26.598,7.468,35.769,18.886C108,38.755,111.605,49.321,111.536,62.701z M40.807,32.727
		c-1.271-0.108-2.846,0.043-4.232,1.054c-1.32,0.963-2.33,2.226-3.242,3.539c-3.841,5.533-3.899,11.426-1.583,17.54
		c1.451,3.828,3.733,7.153,6.155,10.398c6.951,9.316,15.124,17.173,26.121,21.576c4.923,1.971,9.85,4.074,15.367,3.317
		c5.82-0.798,12.641-4.391,12.844-12.754c0.028-1.175-0.087-2.268-1.283-2.87c-4.088-2.058-8.143-4.192-12.385-5.92
		c-1.887-0.769-2.52-0.507-3.762,1.077c-1.262,1.609-2.537,3.208-3.827,4.794c-1.47,1.808-2.006,1.921-4.141,1.059
		c-8.576-3.463-15.096-9.304-19.894-17.149c-1.108-1.813-1.073-2.281,0.355-3.844c1.215-1.331,2.414-2.67,3.303-4.259
		c0.694-1.24,0.747-2.42,0.166-3.753c-1.458-3.347-2.814-6.739-4.205-10.116C45.162,33.008,44.789,32.75,40.807,32.727z"/>
	<path fill-rule="evenodd" clip-rule="evenodd" fill="#FFFFFF" d="M40.807,32.727c3.982,0.023,4.355,0.281,5.758,3.688
		c1.391,3.377,2.746,6.769,4.205,10.116c0.581,1.333,0.529,2.514-0.166,3.753c-0.89,1.589-2.088,2.929-3.303,4.259
		c-1.428,1.563-1.463,2.031-0.355,3.844c4.797,7.846,11.318,13.686,19.894,17.149c2.135,0.862,2.671,0.749,4.141-1.059
		c1.29-1.586,2.565-3.186,3.827-4.794c1.242-1.584,1.875-1.846,3.762-1.077c4.242,1.729,8.297,3.863,12.385,5.92
		c1.196,0.603,1.312,1.695,1.283,2.87c-0.203,8.363-7.023,11.956-12.844,12.754c-5.518,0.757-10.444-1.346-15.367-3.317
		c-10.997-4.403-19.17-12.26-26.121-21.576c-2.421-3.245-4.704-6.57-6.155-10.398c-2.316-6.113-2.258-12.007,1.583-17.54
		c0.912-1.313,1.921-2.576,3.242-3.539C37.961,32.77,39.536,32.619,40.807,32.727z"/>
</g>
</svg>
